<svg viewBox="0 0 96 96" xmlns="http://www.w3.org/2000/svg" xmlns:xlink="http://www.w3.org/1999/xlink" id="Icons_Ringer" overflow="hidden"><path d="M81.19 73.19C75.56 70.37 67.11 63.19 66.31 36.56 66.02 26.77 59.95 22.56 54.87 20.76 55.0595 20.1104 55.1538 19.4367 55.15 18.76 55.15 14.8112 51.9488 11.61 48 11.61 44.0512 11.61 40.85 14.8112 40.85 18.76 40.8462 19.4367 40.9405 20.1104 41.13 20.76 36.05 22.56 29.98 26.76 29.69 36.56 28.89 63.16 20.44 70.36 14.81 73.18 12.52 74.32 13.67 77 15 77L40.5 77C40.9284 81.1421 44.6335 84.1527 48.7756 83.7244 52.3262 83.3572 55.1328 80.5506 55.5 77L81 77C82.33 77 83.48 74.33 81.19 73.19ZM44.85 18.81C44.85 17.0703 46.2603 15.66 48 15.66 49.7397 15.66 51.15 17.0703 51.15 18.81 51.1457 19.1257 51.0952 19.439 51 19.74 50.0105 19.5481 49.0074 19.4344 48 19.4L48 19.4C46.9931 19.4406 45.9905 19.5542 45 19.74 44.9031 19.4394 44.8525 19.1258 44.85 18.81Z"/></svg>