<svg viewBox="0 0 96 96" xmlns="http://www.w3.org/2000/svg" xmlns:xlink="http://www.w3.org/1999/xlink" id="Icons_Bullseye" overflow="hidden"><path d="M78.5 17.5 77.5 8.5 66.5 19.5 67.1 24.7 51.1 40.7C49.7 40 48.1 39.5 46.4 39.5 40.9 39.5 36.4 44 36.4 49.5 36.4 55 40.9 59.5 46.4 59.5 51.9 59.5 56.4 55 56.4 49.5 56.4 47.8 56 46.3 55.3 44.9L71.3 28.9 76.5 29.5 87.5 18.5 78.5 17.5Z"/><path d="M79.3 32.3 78 33.7 76.1 33.5 74 33.2C76.8 38 78.5 43.5 78.5 49.5 78.5 67.1 64.1 81.5 46.5 81.5 28.9 81.5 14.5 67.1 14.5 49.5 14.5 31.9 28.9 17.5 46.5 17.5 52.4 17.5 58 19.1 62.8 22L62.6 20 62.3 18 63.7 16.6 64.4 15.9C59 13.1 53 11.5 46.5 11.5 25.5 11.5 8.5 28.5 8.5 49.5 8.5 70.5 25.5 87.5 46.5 87.5 67.5 87.5 84.5 70.5 84.5 49.5 84.5 43 82.9 37 80 31.7L79.3 32.3Z"/><path d="M63.2 42.7C64.1 44.8 64.5 47.1 64.5 49.5 64.5 59.4 56.4 67.5 46.5 67.5 36.6 67.5 28.5 59.4 28.5 49.5 28.5 39.6 36.6 31.5 46.5 31.5 48.9 31.5 51.2 32 53.3 32.8L57.8 28.3C54.4 26.5 50.6 25.5 46.5 25.5 33.3 25.5 22.5 36.3 22.5 49.5 22.5 62.7 33.3 73.5 46.5 73.5 59.7 73.5 70.5 62.7 70.5 49.5 70.5 45.4 69.5 41.6 67.7 38.2L63.2 42.7Z"/></svg>